# xmcd
#
# Track frame offsets: 
#        150
#        17865
#        36195
#
# Disc length: 841 seconds
#
# Revision: 3
# Processed by: cddbd v1.5.1PL2 Copyright (c) Steve Scherf et al.
# Submitted via: ExactAudioCopy v0.95b2
#
DISCID=1d034703
DTITLE=Busta Rhymes ft. Janet Jackson - What's It Gonna Be
DYEAR=1999
DGENRE=R&B
TTITLE0=What's It Gonna Be (Soul Society Remix)
TTITLE1=What's It Gonna Be (Clean Edit)
TTITLE2=What's It Gonna Be (D&B Remix)
EXTD=
EXTT0=
EXTT1=
EXTT2=
PLAYORDER=
